<?xml version="1.0" encoding="UTF-8"?>
<svg width="83px" height="56px" viewBox="0 0 83 56" version="1.1" xmlns="http://www.w3.org/2000/svg" xmlns:xlink="http://www.w3.org/1999/xlink">
    <!-- Generator: Sketch 41 (35326) - http://www.bohemiancoding.com/sketch -->
    <title>bittrex-word-mark</title>
    <desc>Created with Sketch.</desc>
    <defs></defs>
    <g id="Symbols" stroke="none" stroke-width="1" fill="none" fill-rule="evenodd">
        <g id="bittrex-word-mark" fill="#fff">
            <path d="M2.07685645,33.8802439 L2.07685645,28.4297247 L5.67907288,28.4297247 C7.56786182,28.4297247 8.79758398,29.528602 8.79758398,31.2211509 C8.79758398,32.891035 7.589782,33.8802439 5.54755179,33.8802439 L2.07685645,33.8802439 Z M5.10768683,21.8364609 C6.99647576,21.8364609 8.09467684,22.7598688 8.09467684,24.2762171 C8.09467684,26.0126333 6.99647576,27.1115106 5.30569913,27.1115106 L2.07685645,27.1115106 L2.07685645,21.8364609 L5.10768683,21.8364609 Z M9.80810433,24.144615 C9.80810433,21.8145272 8.07275666,20.4305121 5.10768683,20.4305121 L0.408,20.4305121 L0.408,35.2869238 L5.54755179,35.2869238 C8.66606289,35.2869238 10.5110115,33.7705755 10.5110115,31.2211509 C10.5110115,29.4408673 9.34704985,28.0999884 7.36984952,27.63865 C8.95175592,27.155378 9.80810433,25.9241675 9.80810433,24.144615 Z M14.2239979,35.2864852 L15.8928543,35.2864852 L15.8928543,20.4300734 L14.2239979,20.4300734 L14.2239979,35.2864852 Z M19.4738812,21.8367533 L23.6694039,21.8367533 L23.6694039,35.2864852 L25.3382604,35.2864852 L25.3382604,21.8367533 L29.4899427,21.8367533 L29.4899427,20.4300734 L19.4738812,20.4300734 L19.4738812,21.8367533 Z M31.905985,21.8367533 L36.1015077,21.8367533 L36.1015077,35.2864852 L37.7703641,35.2864852 L37.7703641,21.8367533 L41.9220464,21.8367533 L41.9220464,20.4300734 L31.905985,20.4300734 L31.905985,21.8367533 Z M51.6751387,29.3309065 C53.6523391,28.8695681 54.9039814,27.3751535 54.9039814,24.9792646 C54.9039814,22.1220374 52.9706214,20.4302196 49.6979384,20.4302196 L45.4154657,20.4302196 L45.4154657,35.2866314 L47.0843221,35.2866314 L47.0843221,29.5290407 L50.2912446,29.5290407 L53.5200873,35.2866314 L55.496557,35.2866314 L52.114273,29.7703112 L51.6751387,29.3309065 Z M60.8124932,28.4957451 L67.050246,28.4957451 L67.050246,27.1555973 L60.8124932,27.1555973 L60.8124932,21.8366802 L67.7085821,21.8366802 L67.7085821,20.4300003 L59.1436367,20.4300003 L59.1436367,35.2871432 L67.7750734,35.2871432 L67.7750734,33.8804632 L60.8124932,33.8804632 L60.8124932,28.4957451 Z M77.5944377,27.7045973 L82.0091621,20.4518609 L79.9881215,20.4518609 L76.6715981,26.3417847 L76.540077,26.9135226 L76.4085559,26.3417847 L73.0920325,20.4518609 L71.0936426,20.4518609 L75.5083671,27.7045973 L70.9613909,35.2870701 L73.0043518,35.2870701 L76.4085559,29.1770783 L76.540077,28.6053404 L76.6715981,29.1770783 L80.098453,35.2870701 L82.1414139,35.2870701 L77.5944377,27.7045973 Z M47.062402,28.2100955 L47.062402,21.8368996 L50.0055516,21.8368996 C52.0265923,21.8368996 53.2124741,23.0015779 53.2124741,24.9792646 C53.2124741,27.1331519 51.8724204,28.2100955 49.8959507,28.2100955 L47.062402,28.2100955 Z" id="Work-Mark"></path>
        </g>
    </g>
</svg>