<svg width="120" height="34" viewBox="0 0 120 34" xmlns="http://www.w3.org/2000/svg"><title>CoinEx LOGO svg</title><defs><linearGradient x1="100%" y1="50%" x2="0%" y2="50%" id="a"><stop stop-color="#22E6B8" offset="0%"/><stop stop-color="#00C1CE" offset="100%"/></linearGradient></defs><g fill="none"><path d="M21.358 12.275c-2.565-2.52-6.642-2.52-9.18 0-2.539 2.547-2.512 6.693.026 9.24 2.539 2.547 6.67 2.574 9.208.027.043-.044.221-.24.535-.59l-3.06-3.076c-.315.367-.482.559-.5.577a2.21 2.21 0 0 1-3.131 0c-.864-.867-.864-2.276-.027-3.116.837-.84 2.24-.84 3.105.027l8.184 8.207c-2.24 3.252-5.997 5.314-10.047 5.314-6.697 0-12.15-5.5-12.15-12.275 0-6.774 5.453-12.275 12.15-12.275a12.08 12.08 0 0 1 9.747 4.96c-.361.42-1.283 1.475-2.767 3.166l3.02 3.022 5.012-5.674A16.398 16.398 0 0 0 16.471 0C7.37 0 0 7.452 0 16.61c0 9.159 7.371 16.61 16.47 16.61 4.132 0 7.561-1.3 10.91-4.173 3.05-2.6 4.484-6.208 4.484-6.208L21.358 12.275z" fill="url(#a)"/><path d="M89.23 18.47v7.909h-3.255v-8.08c-.33-1.858-1.98-3.27-3.965-3.27-2.016 0-3.686 1.456-3.98 3.355v7.995h-3.255v-14.35l2.496 1.57a7.296 7.296 0 0 1 4.739-1.732c3.826 0 6.96 2.913 7.228 6.604h-.008zm-34.161-8.264a10.068 10.068 0 0 0-2.852 2.199 6.632 6.632 0 0 0-5.373-2.725c-3.657 0-6.622 2.937-6.622 6.56 0 3.623 2.965 6.56 6.622 6.56a6.64 6.64 0 0 0 3.265-.851 9.876 9.876 0 0 0 1.671 3.175 10.263 10.263 0 0 1-4.936 1.255c-5.652 0-10.234-4.54-10.234-10.139 0-5.6 4.582-10.138 10.234-10.138 3.37 0 6.36 1.614 8.225 4.104zM59.91 26.38c-3.994 0-7.231-3.204-7.231-7.157 0-3.952 3.237-7.157 7.23-7.157 3.995 0 7.232 3.205 7.232 7.157 0 3.953-3.237 7.157-7.231 7.157zm0-3.181c2.219 0 4.017-1.78 4.017-3.976 0-2.196-1.798-3.976-4.017-3.976-2.219 0-4.017 1.78-4.017 3.976 0 2.196 1.798 3.976 4.017 3.976zm9.24-11.133h3.214V26.38H69.15V12.065zm34.95-2.534h-9.193v5.203h8.927v3.23h-8.927v5.184h9.194v3.23H91.447V6.3h12.655v3.23zm6.759 9.66l-4.948-7.126h4.092c.12.2.297.474.528.823a2041.015 2041.015 0 0 1 1.688 2.545c.27.406.462.707.576.902l.165.283 2.94-4.553h3.893l-4.86 7.007 5.037 7.307h-4.043l-3.102-4.679-.168.247c-.137.201-.341.511-.613.932-.272.418-.562.862-.872 1.33-.311.47-.603.914-.875 1.334-.231.357-.407.635-.527.836h-3.861l4.95-7.187z" fill="#D4D6DF"/><path d="M31.938 2.164c0-.587.216-1.094.649-1.522A2.13 2.13 0 0 1 34.14 0a2.15 2.15 0 0 1 1.569.642c.432.418.648.93.648 1.537 0 .607-.216 1.125-.648 1.553-.423.428-.94.641-1.554.641a2.148 2.148 0 0 1-1.568-.641 2.121 2.121 0 0 1-.649-1.568z" fill="url(#a)" transform="translate(36.61 6.102)"/></g></svg>