<?xml version="1.0" encoding="UTF-8"?>
<svg width="76px" height="20px" viewBox="0 0 76 20" version="1.1" xmlns="http://www.w3.org/2000/svg" xmlns:xlink="http://www.w3.org/1999/xlink">
    <!-- Generator: Sketch 48.2 (47327) - http://www.bohemiancoding.com/sketch -->
    <title>LOGO</title>
    <desc>Created with Sketch.</desc>
    <defs></defs>
    <g id="登录" stroke="none" stroke-width="1" fill="none" fill-rule="evenodd" transform="translate(-15.000000, -33.000000)">
        <g id="LOGO" transform="translate(15.000000, 33.000000)" fill-rule="nonzero">
            <path d="M5.79528358,10 L11.5548358,15.804 L15.1903582,12.1411429 C15.8312537,11.4942857 16.8737015,11.4942857 17.5157313,12.1411429 C18.1577612,12.788 18.1577612,13.8371429 17.5157313,14.484 L12.7175224,19.3182857 C12.0783284,19.9617143 11.0256716,19.956 10.3921493,19.3182857 L3.47104478,12.344 L3.47104478,16.4902857 C3.47104478,17.4005714 2.73032836,18.1474286 1.82626866,18.1474286 C0.91880597,18.1474286 0.182626866,17.4045714 0.182626866,16.4902857 L0.182626866,3.50971429 C0.182626866,2.59542857 0.91880597,1.85257143 1.82740299,1.85257143 C2.73486567,1.85257143 3.47104478,2.59542857 3.47104478,3.50971429 L3.47104478,7.656 L10.3921493,0.681714286 C11.0256716,0.044 12.0783284,0.0377142857 12.7175224,0.681714286 L17.5157313,5.516 C18.1577612,6.16171429 18.1577612,7.21142857 17.5157313,7.85885714 C16.8737015,8.50457143 15.8312537,8.50571429 15.1903582,7.85885714 L11.5548358,4.196 L5.79528358,10 Z M11.5576716,8.34171429 C12.4662687,8.34171429 13.2024478,9.08457143 13.2024478,10 C13.2024478,10.9154286 12.4662687,11.6582857 11.5576716,11.6582857 C10.6485075,11.6582857 9.91119403,10.9154286 9.91119403,10 C9.91119403,9.08457143 10.6485075,8.34171429 11.5571045,8.34171429 L11.5576716,8.34171429 Z" id="Shape" fill="#0093DD"></path>
            <path d="M24.9132537,2.78285714 C24.3562985,2.78285714 23.8940597,3.248 23.8940597,3.80914286 L23.8940597,16.1908571 C23.8940597,16.7537143 24.3534627,17.2177143 24.9092836,17.2177143 C25.4651045,17.2177143 25.9245075,16.7548571 25.9245075,16.1948571 L25.9245075,3.81142857 C25.9245075,3.24742857 25.4594328,2.78285714 24.9036119,2.78285714 L24.9132537,2.78285714 Z M32.8308657,3.08114286 C32.4383881,2.68457143 31.7844478,2.68457143 31.3902687,3.08114286 L26.8325373,7.67428571 C26.4939403,8.01542857 26.5393134,8.54514286 26.6896119,8.80685714 L31.2269254,16.704 C31.5002985,17.1817143 32.1400597,17.364 32.6187463,17.0811429 C33.0974328,16.7965714 33.2709851,16.164 32.9930746,15.68 L28.8777313,8.51657143 L32.832,4.53371429 C33.2267463,4.13485714 33.2267463,3.47942857 32.832,3.08114286 L32.8308657,3.08114286 Z M35.6133731,6.95371429 C35.0564179,6.95371429 34.5941791,7.41657143 34.5941791,7.97657143 L34.5941791,13.3937143 C34.5941791,15.5022857 36.293403,17.2165714 38.3873731,17.2165714 L41.582209,17.2165714 C42.1368955,17.2165714 42.6008358,16.748 42.6008358,16.188 L42.6008358,7.97714286 C42.6008358,7.41371429 42.1414328,6.952 41.582209,6.952 C41.0252537,6.952 40.5630149,7.41657143 40.5630149,7.97714286 L40.5630149,15.1622857 L38.3851045,15.1622857 C37.4152537,15.1622857 36.6268955,14.3702857 36.6268955,13.3937143 L36.6268955,7.97657143 C36.6268955,7.41085714 36.1674925,6.948 35.606,6.948 L35.6133731,6.95371429 Z M53.2555821,3.80514286 C53.2555821,3.23942857 52.7933433,2.77657143 52.2363881,2.77657143 L48.374,2.77657143 C46.2811642,2.77657143 44.5853433,4.48514286 44.5853433,6.59371429 L44.5853433,13.388 C44.5853433,15.4965714 46.2868358,17.2108571 48.3796716,17.2108571 L52.2477313,17.2108571 C52.8092239,17.2108571 53.2686269,16.7422857 53.2686269,16.1822857 C53.2686269,15.6222857 52.8092239,15.1537143 52.2477313,15.1537143 L48.3791045,15.1537143 C47.4092537,15.1537143 46.6237313,14.3594286 46.6237313,13.3822857 L46.6237313,6.6 C46.6237313,5.62285714 47.4098209,4.83142857 48.3791045,4.83142857 L52.2414925,4.83142857 C52.7984478,4.83142857 53.2595522,4.36685714 53.2595522,3.80457143 L53.2555821,3.80514286 Z M65.1546866,2.77657143 C64.5960299,2.77657143 64.1360597,3.23942857 64.1360597,3.79942857 C64.1360597,4.35942857 64.596597,4.82228571 65.1552537,4.82228571 C65.7110746,4.82228571 66.1704776,4.35942857 66.1704776,3.79371429 C66.1704776,3.228 65.7110746,2.76514286 65.1495821,2.76514286 L65.1546866,2.77657143 Z M65.1546866,6.948 C64.5960299,6.948 64.1360597,7.41085714 64.1360597,7.97085714 L64.1360597,16.1822857 C64.1360597,16.7422857 64.596597,17.2051429 65.1552537,17.2051429 C65.7110746,17.2051429 66.1704776,16.7422857 66.1704776,16.1765714 L66.1704776,7.98285714 C66.1704776,7.42057143 65.7110746,6.95657143 65.1495821,6.95657143 L65.1546866,6.948 Z M74.7976119,17.2108571 C75.3545672,17.2108571 75.816806,16.7422857 75.816806,16.1822857 L75.816806,10.7708571 C75.816806,8.65657143 74.1181493,6.948 72.0236119,6.948 L68.824806,6.948 C68.2689851,6.948 67.8039104,7.41657143 67.8039104,7.97085714 L67.8039104,16.1822857 C67.8039104,16.7422857 68.2633134,17.2051429 68.8191343,17.2051429 C69.3749552,17.2051429 69.8343582,16.7365714 69.8343582,16.1765714 L69.8343582,9.00571429 L72.006597,9.00571429 C72.9741791,9.00571429 73.7602687,9.79771429 73.7602687,10.7742857 L73.7602687,16.1902857 C73.7602687,16.752 74.2196716,17.2165714 74.7777612,17.2165714 L74.7976119,17.2108571 Z M54.7217015,10.7714286 C54.7217015,8.66857143 56.4095821,6.95028571 58.4933433,6.95028571 L58.7468657,6.95028571 C60.8226866,6.95028571 62.5003582,8.67314286 62.5003582,10.7697143 L62.5003582,13.3925714 C62.5003582,15.4897143 60.8226866,17.2097143 58.7468657,17.2125714 L58.4933433,17.2125714 C56.4090149,17.2142857 54.7217015,15.4942857 54.7217015,13.3914286 L54.7217015,10.7685714 L54.7217015,10.7714286 Z M60.461403,10.7714286 C60.461403,9.796 59.6787164,9.00285714 58.7105672,9.00285714 L58.5109254,9.00285714 C57.5433433,9.00285714 56.7595224,9.79714286 56.7595224,10.7725714 L56.7595224,13.3937143 C56.7595224,14.3651429 57.5433433,15.1594286 58.5109254,15.1594286 L58.7105672,15.1594286 C59.6781493,15.1594286 60.4619701,14.3651429 60.4619701,13.388 L60.4619701,10.7651429 L60.461403,10.7714286 Z" id="Shape" fill="#68B92E"></path>
        </g>
    </g>
</svg>